<?xml version="1.0" encoding="UTF-8"?>
<svg width="14px" height="14px" viewBox="0 0 14 14" version="1.1" xmlns="http://www.w3.org/2000/svg" xmlns:xlink="http://www.w3.org/1999/xlink">
    <!-- Generator: Sketch 39.1 (31720) - http://www.bohemiancoding.com/sketch -->
    <title>Delete</title>
    <desc>Created with Sketch.</desc>
    <defs></defs>
    <g id="Page-1" stroke="none" stroke-width="1" fill="none" fill-rule="evenodd">
        <g id="Member-(Editing)" transform="translate(-25.000000, -299.000000)" fill="#FA124F">
            <g id="List" transform="translate(0.000000, 228.000000)">
                <g id="New" transform="translate(0.000000, 52.000000)">
                    <path d="M33,25 L33,17.9933977 C33,17.4449463 32.5522847,17 32,17 C31.4438648,17 31,17.4447593 31,17.9933977 L31,25 L23.9933977,25 C23.4449463,25 23,25.4477153 23,26 C23,26.5561352 23.4447593,27 23.9933977,27 L31,27 L31,34.0066023 C31,34.5550537 31.4477153,35 32,35 C32.5561352,35 33,34.5552407 33,34.0066023 L33,27 L40.0066023,27 C40.5550537,27 41,26.5522847 41,26 C41,25.4438648 40.5552407,25 40.0066023,25 L33,25 Z" id="Delete" transform="translate(32.000000, 26.000000) rotate(45.000000) translate(-32.000000, -26.000000) "></path>
                </g>
            </g>
        </g>
    </g>
</svg>