<?xml version="1.0" encoding="UTF-8"?>
<svg width="12px" height="20px" viewBox="0 0 12 20" version="1.1" xmlns="http://www.w3.org/2000/svg" xmlns:xlink="http://www.w3.org/1999/xlink">
    <!-- Generator: Sketch 39.1 (31720) - http://www.bohemiancoding.com/sketch -->
    <title>Combined Shape</title>
    <desc>Created with Sketch.</desc>
    <defs></defs>
    <g id="Page-1" stroke="none" stroke-width="1" fill="none" fill-rule="evenodd">
        <g id="Family" transform="translate(-292.000000, -158.000000)" fill="#8E8E93">
            <g id="Member" transform="translate(0.000000, 140.000000)">
                <g id="View-Button" transform="translate(272.000000, 12.000000)">
                    <path d="M15.1918465,9.19461608 C15.0110622,9.3754017 14.8994949,9.62448403 14.8994949,9.89949494 C14.8994949,9.90063677 14.8994968,9.90177814 14.8995006,9.90291903 C14.8994968,9.9040573 14.8994949,9.90519863 14.8994949,9.90634041 L14.8994949,21.8926495 C14.8994949,22.4495462 15.3472102,22.8994949 15.8994949,22.8994949 C16.4556301,22.8994949 16.8994949,22.4487149 16.8994949,21.8926495 L16.8994949,10.8994949 L27.8926495,10.8994949 C28.4495462,10.8994949 28.8994949,10.4517797 28.8994949,9.89949494 C28.8994949,9.34335976 28.4487149,8.89949494 27.8926495,8.89949494 L15.9063404,8.89949494 C15.9051986,8.89949494 15.9040573,8.89949682 15.9029164,8.89950058 C15.9017781,8.89949686 15.9006367,8.89949494 15.8994949,8.89949494 C15.6225662,8.89949494 15.3734756,9.01126873 15.1931653,9.19215793 Z" id="Combined-Shape" transform="translate(21.899495, 15.899495) rotate(135.000000) translate(-21.899495, -15.899495) "></path>
                </g>
            </g>
        </g>
    </g>
</svg>