<?xml version="1.0" encoding="UTF-8"?>
<svg width="30px" height="28px" viewBox="0 0 30 28" version="1.1" xmlns="http://www.w3.org/2000/svg" xmlns:xlink="http://www.w3.org/1999/xlink">
    <!-- Generator: Sketch 39.1 (31720) - http://www.bohemiancoding.com/sketch -->
    <title>Star</title>
    <desc>Created with Sketch.</desc>
    <defs></defs>
    <g id="Page-1" stroke="none" stroke-width="1" fill="none" fill-rule="evenodd">
        <g id="Families" transform="translate(-17.000000, -17.000000)" fill="#43BF77">
            <g id="Top-Bar" transform="translate(17.000000, 10.000000)">
                <g id="Logo" transform="translate(0.000000, 7.000000)">
                    <path d="M16.7689266,23.9299797 C15.7919754,23.4163661 14.214348,23.4130417 13.2310734,23.9299797 L7.36436252,27.0142922 C6.38741136,27.5279058 5.74548215,27.0694355 5.93327087,25.9745432 L7.05371296,19.4418646 C7.24029403,18.3540135 6.75594203,16.8525734 5.96045622,16.0771664 L1.21418739,11.4506977 C0.423817295,10.6802772 0.661481406,9.92809118 1.76081576,9.76834855 L8.31999796,8.81524359 C9.41226257,8.65652825 10.690544,7.73191161 11.1821813,6.7357457 L14.1155367,0.792118348 C14.6040123,-0.197641286 15.392826,-0.204047562 15.8844633,0.792118348 L18.8178187,6.7357457 C19.3062943,7.72550533 20.5806677,8.65550095 21.680002,8.81524359 L28.2391842,9.76834855 C29.3314488,9.92706389 29.5812984,10.6752907 28.7858126,11.4506977 L24.0395438,16.0771664 C23.2491737,16.8475868 22.7584983,18.3469723 22.946287,19.4418646 L24.0667291,25.9745432 C24.2533102,27.0623943 23.618912,27.5312302 22.6356375,27.0142922 L16.7689266,23.9299797 Z" id="Star"></path>
                </g>
            </g>
        </g>
    </g>
</svg>